HIERARCHY
ROOT root
{
	OFFSET 0.000000 0.000000 0.000000
	CHANNELS 6 Xposition Yposition Zposition Zrotation Yrotation Xrotation
	JOINT lhip
	{
		OFFSET 0.058581 -0.082280 -0.017664
		CHANNELS 3 Zrotation Yrotation Xrotation
		JOINT lknee
		{
			OFFSET 0.043451 -0.386469 0.008037
			CHANNELS 3 Zrotation Yrotation Xrotation
			JOINT lankle
			{
				OFFSET -0.014790 -0.426874 -0.037428
				CHANNELS 3 Zrotation Yrotation Xrotation
				JOINT ltoe
				{
					OFFSET 0.041054 -0.060286 0.122042
					CHANNELS 3 Zrotation Yrotation Xrotation
					End Site
					{
						OFFSET 0.000000 0.000000 0.000000
					}
				}
			}
		}
	}
	JOINT rhip
	{
		OFFSET -0.060310 -0.090513 -0.013543
		CHANNELS 3 Zrotation Yrotation Xrotation
		JOINT rknee
		{
			OFFSET -0.043257 -0.383688 -0.004843
			CHANNELS 3 Zrotation Yrotation Xrotation
			JOINT rankle
			{
				OFFSET 0.019056 -0.420046 -0.034562
				CHANNELS 3 Zrotation Yrotation Xrotation
				JOINT rtoe
				{
					OFFSET -0.034840 -0.062106 0.130323
					CHANNELS 3 Zrotation Yrotation Xrotation
					End Site
					{
						OFFSET 0.000000 0.000000 0.000000
					}
				}
			}
		}
	}
	JOINT lowerback
	{
		OFFSET 0.004439 0.124404 -0.038385
		CHANNELS 3 Zrotation Yrotation Xrotation
		JOINT upperback
		{
			OFFSET 0.004488 0.137956 0.026820
			CHANNELS 3 Zrotation Yrotation Xrotation
			JOINT chest
			{
				OFFSET -0.002265 0.056032 0.002855
				CHANNELS 3 Zrotation Yrotation Xrotation
				JOINT lowerneck
				{
					OFFSET -0.013390 0.211636 -0.033468
					CHANNELS 3 Zrotation Yrotation Xrotation
					JOINT upperneck
					{
						OFFSET 0.010113 0.088937 0.050410
						CHANNELS 3 Zrotation Yrotation Xrotation
						End Site
						{
							OFFSET 0.000000 0.000000 0.000000
						}
					}
				}
				JOINT lclavicle
				{
					OFFSET 0.071702 0.114000 -0.018898
					CHANNELS 3 Zrotation Yrotation Xrotation
					JOINT lshoulder
					{
						OFFSET 0.122921 0.045205 -0.019046
						CHANNELS 3 Zrotation Yrotation Xrotation
						JOINT lelbow
						{
							OFFSET 0.255332 -0.015649 -0.022946
							CHANNELS 3 Zrotation Yrotation Xrotation
							JOINT lwrist
							{
								OFFSET 0.265709 0.012698 -0.007375
								CHANNELS 3 Zrotation Yrotation Xrotation
								End Site
								{
									OFFSET 0.000000 0.000000 0.000000
								}
							}
						}
					}
				}
				JOINT rclavicle
				{
					OFFSET -0.082954 0.112472 -0.023707
					CHANNELS 3 Zrotation Yrotation Xrotation
					JOINT rshoulder
					{
						OFFSET -0.113228 0.046853 -0.008472
						CHANNELS 3 Zrotation Yrotation Xrotation
						JOINT relbow
						{
							OFFSET -0.260127 -0.014369 -0.031269
							CHANNELS 3 Zrotation Yrotation Xrotation
							JOINT rwrist
							{
								OFFSET -0.269108 0.006794 -0.006027
								CHANNELS 3 Zrotation Yrotation Xrotation
								End Site
								{
									OFFSET 0.000000 0.000000 0.000000
								}
							}
						}
					}
				}
			}
		}
	}
}
MOTION
Frames: 14
Frame Time: 0.033333
0.176656 0.502752 0.968355 86.041233 9.487702 74.577113 0.274307 -3.101590 -0.150091 -12.959401 -13.506495 34.174527 9.211758 26.164903 -21.108614 0.000000 -0.000000 0.000000 -11.474087 -5.580283 -73.141378 3.091455 -20.702546 90.064141 2.593413 -10.573286 41.107328 0.000000 -0.000000 0.000000 -0.206462 -10.751553 40.647282 6.133560 3.622594 2.181954 -1.457548 -0.977871 3.737877 2.485834 -3.679719 12.411216 -5.919134 -1.670853 14.059629 0.022051 20.105264 -2.665232 -27.683793 -3.330785 -2.038194 11.080133 -10.572616 -11.502136 -14.943783 -1.310062 -6.733988 8.795611 -14.973805 -4.293712 17.100366 0.351701 -5.525906 -6.993856 15.731994 -0.298997 12.423949 -6.010498 10.836678 
0.176237 0.502483 0.968415 85.671696 9.553293 74.660749 0.227351 -3.084669 -0.491739 -12.970602 -13.612549 34.596800 9.459656 26.589077 -21.056319 0.000000 -0.000000 0.000000 -11.393979 -5.170721 -73.349971 3.063322 -20.668426 89.978103 2.754384 -10.832012 40.914289 0.000000 -0.000000 0.000000 0.051286 -10.964184 40.771080 5.885606 3.926717 2.128555 -1.575301 -0.681631 3.328235 2.641883 -3.554865 12.278144 -5.835379 -1.833272 14.358051 -0.012398 20.271941 -3.261855 -27.458296 -3.643303 -1.885958 10.906042 -10.191754 -11.356508 -15.110175 -0.815000 -5.879872 8.526930 -14.979056 -3.922885 17.096949 0.449093 -5.916033 -6.557448 15.925068 -0.310768 12.755521 -6.519122 11.075938 
0.175931 0.502678 0.968316 85.366918 9.562584 74.712566 0.103711 -3.061889 -0.530234 -12.664654 -13.518377 34.504708 9.641136 26.816040 -21.078321 0.000000 -0.000000 0.000000 -11.422380 -4.982092 -73.578450 2.959279 -20.713454 89.980679 2.615751 -10.826026 41.067637 0.000000 -0.000000 0.000000 0.200193 -11.004133 40.637498 5.947909 3.993244 2.351864 -1.589217 -0.650910 3.204357 2.401952 -3.637288 12.328573 -6.142510 -1.552148 14.227711 -0.088007 20.197972 -2.828729 -27.708577 -3.381416 -1.878932 10.742315 -10.370398 -11.028512 -15.732254 -1.139348 -6.714870 8.369427 -14.784728 -3.779914 17.075736 0.839858 -5.804788 -6.685628 15.934612 -0.431264 12.337635 -6.365982 11.194862 
0.176334 0.502836 0.968057 84.985633 9.489406 74.667826 -0.123744 -3.028130 -0.455664 -12.489165 -13.543761 34.425597 9.684992 27.196547 -20.991874 0.000000 -0.000000 0.000000 -11.437051 -4.770943 -73.829322 2.940773 -20.595837 90.198061 2.501610 -11.012312 40.935525 0.000000 -0.000000 0.000000 0.426957 -11.011039 40.557797 5.815376 4.113038 2.150347 -1.653416 -0.639567 3.371248 2.152044 -3.669334 12.672013 -6.034529 -1.697695 14.053768 -0.225598 19.740015 -2.830063 -27.667105 -3.070807 -1.848909 10.547887 -9.754065 -10.600923 -14.848886 -0.917324 -5.845104 8.289313 -14.240649 -3.827576 16.975328 0.342753 -5.891568 -6.516477 16.434710 -0.348188 12.073780 -5.928524 11.194606 
0.176746 0.503019 0.968023 84.582588 9.427993 74.446840 -0.280720 -3.106629 -0.158990 -12.394860 -13.435687 34.354921 9.672837 27.482024 -21.054132 0.000000 -0.000000 0.000000 -11.429781 -4.546774 -73.792688 2.731129 -20.474761 90.263089 2.563494 -11.044744 41.161106 0.000000 -0.000000 0.000000 0.557448 -11.000516 40.550462 5.785791 4.227188 2.348787 -1.848888 -0.724296 3.443673 2.148899 -3.633101 12.513483 -6.279322 -1.531628 13.886157 -0.126339 20.112072 -2.861122 -27.979950 -3.156455 -1.790279 10.952048 -10.369491 -10.582226 -15.472763 -1.201957 -6.744627 8.241655 -14.100590 -4.016819 17.259619 0.680471 -5.491376 -6.961926 16.997480 0.064223 12.293119 -5.933776 10.593263 
0.176698 0.503259 0.967823 84.268214 9.457119 74.428878 -0.233689 -2.973755 -0.249653 -12.510548 -13.480441 34.480016 9.680635 27.632489 -21.257392 0.000000 -0.000000 0.000000 -11.296985 -4.442563 -73.945059 3.029989 -20.413841 90.205865 2.675974 -11.114170 40.776750 0.000000 -0.000000 0.000000 0.656911 -10.994671 40.506158 5.783972 4.387430 2.259974 -1.808586 -0.651439 3.510434 2.037136 -3.566565 12.451844 -6.416855 -1.463207 14.116426 -0.123445 19.961298 -2.999791 -28.024629 -3.380994 -2.039182 10.946703 -9.801688 -10.901325 -15.698456 -0.775341 -6.359287 8.193055 -13.990929 -4.051228 17.017464 0.910808 -5.667108 -6.698808 16.823590 0.351806 12.387900 -6.413023 11.108334 
0.176883 0.503673 0.967659 84.030121 9.437648 74.380362 -0.283572 -2.903428 -0.261485 -12.341120 -13.238640 34.440687 10.210252 27.453638 -21.178552 0.000000 -0.000000 0.000000 -11.390977 -4.451550 -74.037865 3.017523 -20.511239 90.132035 2.645940 -11.089966 40.757701 0.000000 -0.000000 0.000000 0.783124 -11.177863 40.455489 5.633117 4.608715 2.269851 -1.917763 -0.564898 3.643677 2.394545 -3.343993 12.084149 -6.750273 -1.705849 14.454695 -0.035952 19.923964 -3.232360 -28.122821 -3.078705 -0.993554 10.727867 -10.263012 -9.194168 -12.492549 -3.150791 -6.306601 8.241816 -13.676880 -4.181546 17.013413 0.826958 -5.168515 -6.634054 16.755329 -0.038793 9.719739 -5.364127 12.041243 
0.176842 0.504148 0.967514 83.968537 9.516955 74.258175 -0.095413 -2.732074 -0.221755 -12.612580 -13.266231 34.633190 10.101009 27.416126 -21.307409 0.000000 -0.000000 0.000000 -11.288139 -4.618795 -73.861565 3.146968 -20.413796 90.004734 2.699177 -11.148136 40.654821 0.000000 -0.000000 0.000000 0.939488 -11.162644 40.563636 5.773603 4.528525 2.266573 -1.863150 -0.557137 3.512521 2.086034 -3.479730 12.085320 -6.737250 -1.496152 14.653781 0.112357 19.703893 -2.819804 -28.072912 -3.022031 -2.351918 11.279089 -10.947980 -11.460894 -16.551354 0.206498 -6.513844 8.048838 -13.347145 -3.619057 16.834393 0.758679 -5.936788 -6.631163 16.750502 0.382309 12.877040 -6.918060 11.588610 
0.177251 0.504762 0.966973 83.918551 9.501107 74.184960 0.033549 -2.638137 -0.147711 -12.820279 -13.009588 34.699815 9.861274 27.272498 -21.349695 0.000000 -0.000000 0.000000 -11.524847 -4.858982 -73.709440 3.184904 -20.536240 90.147740 2.923450 -10.891282 40.328776 0.000000 -0.000000 0.000000 1.042996 -11.164775 40.257617 5.816897 4.461340 2.548337 -1.873168 -0.538463 3.629417 2.103279 -3.435148 12.069401 -6.805983 -1.439016 14.621541 -0.121024 19.639941 -2.927466 -27.820086 -3.134279 -1.927701 10.724949 -10.414142 -10.177137 -13.669775 -1.009890 -5.883526 8.257607 -13.296910 -3.750310 16.486242 0.798867 -5.833346 -6.252503 16.517247 0.401972 10.689848 -5.769132 11.877194 
0.177611 0.505383 0.966312 83.952128 9.494120 74.039433 0.059179 -2.307131 0.017846 -12.893842 -13.138005 34.713013 9.843081 27.151687 -21.463014 0.000000 -0.000000 0.000000 -11.650678 -5.183695 -73.610047 3.234322 -20.495836 90.244471 2.916205 -10.921613 40.558201 0.000000 -0.000000 0.000000 1.090226 -11.257103 40.157132 5.800908 4.407586 2.644874 -1.938118 -0.463395 3.804780 2.166667 -3.554043 12.116361 -6.852646 -1.402199 14.477180 -0.052813 19.573825 -2.896210 -27.669763 -3.118537 -2.016103 10.551697 -10.538459 -10.643404 -13.171073 -0.588287 -6.504995 8.130797 -13.383942 -3.728568 16.659881 0.764566 -5.983333 -6.303234 16.876878 0.366212 9.775832 -6.377720 12.194044 
0.177422 0.505470 0.966134 83.774283 9.512031 74.020596 0.418084 -2.020127 -0.137124 -13.248081 -12.893268 34.975716 9.250821 26.832435 -21.722633 0.000000 -0.000000 0.000000 -11.668304 -5.193888 -73.621838 3.295898 -20.514338 90.142831 2.807731 -10.761946 40.624385 0.000000 -0.000000 0.000000 1.027123 -11.186145 39.877722 5.867507 4.436337 3.161684 -2.002814 -0.494182 3.586193 2.506489 -3.293245 12.049593 -7.026088 -1.780498 14.760287 -0.041287 19.808999 -3.186031 -27.605835 -3.394189 -1.442011 10.323549 -9.944503 -10.082779 -14.145451 -1.014605 -6.152161 8.517162 -13.268359 -4.108237 16.190846 0.939582 -5.397770 -6.338843 16.272435 0.245495 10.028797 -6.188409 12.185553 
0.177546 0.505815 0.966223 83.675849 9.360243 73.893366 0.643408 -1.801698 0.034790 -13.573300 -12.517150 34.791645 9.217309 26.194760 -21.885073 0.000000 -0.000000 0.000000 -11.744398 -5.282932 -73.527994 3.259570 -20.329877 90.313641 2.896214 -10.628599 40.379803 0.000000 -0.000000 0.000000 0.837332 -11.119604 40.056425 5.731198 4.447832 2.835478 -2.017057 -0.517667 3.744122 2.683934 -3.223994 12.290089 -7.006503 -1.875777 14.687218 -0.070024 19.884827 -3.334900 -27.393217 -3.512043 -1.508568 10.579638 -9.872007 -10.290087 -13.405772 -1.342239 -5.964105 8.606663 -13.448854 -4.229157 16.202389 1.285594 -5.278174 -6.305580 16.024186 0.693155 9.626636 -5.787585 12.468335 
0.177365 0.506345 0.966493 83.772930 9.308971 73.844307 0.546325 -1.561247 0.180882 -13.403959 -12.546890 34.686164 9.130075 25.963722 -21.865349 0.000000 -0.000000 0.000000 -11.778478 -5.644345 -73.308718 3.171862 -20.289541 90.254632 3.017628 -10.633321 40.325008 0.000000 -0.000000 0.000000 0.821620 -11.175276 40.131060 5.689899 4.309382 2.906044 -2.056097 -0.510564 3.578957 2.322978 -3.429149 12.476721 -6.660462 -1.815971 14.588154 -0.187600 19.700956 -3.328043 -27.134457 -3.350861 -1.887176 10.712073 -10.549254 -11.223670 -14.260636 -0.927576 -6.174181 8.641412 -13.473878 -4.174005 16.012492 1.253609 -5.621746 -6.027972 15.750419 0.825976 10.845677 -5.572458 12.501822 
0.176975 0.506800 0.966796 83.946298 9.344685 73.777821 0.363241 -1.727401 0.317769 -13.245256 -12.742698 34.582576 9.113642 26.036458 -21.701963 0.000000 -0.000000 0.000000 -11.849788 -5.995337 -73.034034 3.247576 -20.376858 90.169512 3.075602 -10.546902 40.308457 0.000000 -0.000000 0.000000 0.890980 -11.203682 40.305573 5.663736 4.265108 2.832419 -2.024761 -0.568871 3.573155 2.484279 -3.427025 12.229974 -6.921889 -1.966792 14.742077 -0.056220 19.670846 -3.136992 -27.505603 -3.474051 -1.652417 10.407783 -10.142722 -10.634052 -13.472512 -1.720447 -5.924744 8.435763 -13.504110 -3.938328 16.143348 1.254772 -5.746311 -5.983774 15.477075 0.223134 10.017678 -5.300104 12.910852 
